<svg width="188" height="52" viewBox="0 0 188 52" fill="none" xmlns="http://www.w3.org/2000/svg">
<path d="M44 0H48L47.9991 12.0041H43.9991L28 12V16H16V28H20V32H28V36H44V48H12V44H40V40H24V36H16V32H12V12H24V8H44V4H16V0H44Z" fill="#444444"/>
<rect x="8" y="40" width="4" height="4" fill="#444444"/>
<path d="M4 36H8V40H0V20H4V36Z" fill="#444444"/>
<path d="M4 8H8V4H16V8H12V12H8V20H4V8Z" fill="#444444"/>
<path d="M60 0H80V4H88V12H92V24H88V16H84V8H76V4H64V48H84V44H92V36H88V32H84V28H76V24H88V27.5H92V32H96V48H88V52H60V0Z" fill="#444444"/>
<rect x="72" y="32" width="8" height="12" fill="#444444"/>
<rect x="72" y="12" width="8" height="8" fill="#444444"/>
<path d="M104 0H112V4H108V44H116V28H124V32H120V48H104V0Z" fill="#444444"/>
<path d="M112 4H116V8H120V12H124V20H120V16H116V12H112V4Z" fill="#444444"/>
<path d="M124 20H128V24H132V28H136V0H148V52H132V44H136V48H144V4H140V40H136V36H132V32H128V28H124V20Z" fill="#444444"/>
<path d="M124 32H128V40H132V44H128H124V32Z" fill="#444444"/>
<path d="M156 0H172V4H160V48H164V32H172V40H168V52H156V0Z" fill="#444444"/>
<rect x="164" y="12" width="8" height="8" fill="#444444"/>
<path d="M172 4H180V12H176V8H172V4Z" fill="#444444"/>
<path d="M180 12H184V24H180V28H176V32H172V24H176V20H180V12Z" fill="#444444"/>
<path d="M176 32H180V36H184V44H180V40H176V32Z" fill="#444444"/>
<rect x="172" y="40" width="4" height="4" fill="#444444"/>
<path d="M176 44H180V48H184V44H188V52H176V44Z" fill="#444444"/>
</svg>
